<svg width="50" height="50" xmlns="http://www.w3.org/2000/svg">
 <!-- Created with Method Draw - http://github.com/duopixel/Method-Draw/ -->
 <g>
  <title>background</title>
  <rect fill="none" id="canvas_background" height="52" width="52" y="-1" x="-1"/>
  <g display="none" overflow="visible" y="0" x="0" height="100%" width="100%" id="canvasGrid">
   <rect fill="url(#gridpattern)" stroke-width="0" y="0" x="0" height="100%" width="100%"/>
  </g>
 </g>
 <g>
  <title>Layer 1</title>
  <path id="svg_6" d="m-18.06297,0.50926c0,0.09143 -0.33355,0.16556 -0.745,0.16556m0.745,-0.16556l0,0c0,0.09143 -0.33355,0.16556 -0.745,0.16556c-0.41145,0 -0.745,-0.07412 -0.745,-0.16556m0,0l0,0c0,-0.09143 0.33355,-0.16556 0.745,-0.16556c0.41145,0 0.745,0.07412 0.745,0.16556l0,0.66222c0,0.09143 -0.33355,0.16556 -0.745,0.16556c-0.41145,0 -0.745,-0.07412 -0.745,-0.16556l0,-0.66222z" fill-opacity="null" stroke-opacity="null" stroke-width="1.5" stroke="#000" fill="#00bfbf"/>
  <path stroke="#000" id="svg_8" d="m18.14436,48.54611c-8.24631,-2.55634 -14.15699,-10.67904 -12.81373,-17.60918c0.84702,-4.36998 18.717,-30.8988 20.27762,-30.10309c0.50936,0.25971 5.04207,6.44469 10.07268,13.74441c8.0585,11.69337 9.14655,13.87383 9.14655,18.32971c0,9.03188 -8.76175,16.43002 -19.28205,16.28114c-3.06997,-0.04345 -6.40045,-0.33279 -7.40107,-0.64298l0,0zm8.26187,-4.54271c0.27296,-1.16931 -0.36466,-1.73957 -1.94503,-1.73957c-3.60184,0 -8.59817,-3.76347 -9.71442,-7.31735c-1.19074,-3.79102 -4.34793,-4.24189 -4.81427,-0.6875c-0.89846,6.84803 14.96009,16.22856 16.47372,9.74442l0,0z" stroke-opacity="null" stroke-width="1.5" fill="#7AB1FF"/>
 </g>
</svg>
