<svg width="50.00000000000001" height="50.00000000000001" xmlns="http://www.w3.org/2000/svg">
 <!-- Created with Method Draw - http://github.com/duopixel/Method-Draw/ -->
 <g>
  <title>background</title>
  <rect fill="none" id="canvas_background" height="52" width="52" y="-1" x="-1"/>
  <g display="none" overflow="visible" y="0" x="0" height="100%" width="100%" id="canvasGrid">
   <rect fill="url(#gridpattern)" stroke-width="0" y="0" x="0" height="100%" width="100%"/>
  </g>
 </g>
 <g>
  <title>Layer 1</title>
  <path stroke="#000" id="svg_1" d="m10.14955,49.00719c-4.4591,-2.44957 0.11315,-7.28672 3.83125,-5.72239c2.76685,-0.00647 5.53372,-0.0022 8.30057,-0.00344c0,-5.57579 0,-11.15158 0,-16.72738c-6.93098,-8.56679 -13.86196,-17.13359 -20.79293,-25.70038c15.68744,-0.05967 31.37503,-0.0596 47.06247,0c-6.80637,8.60912 -13.61275,17.21825 -20.41912,25.82737c0,5.53347 0,11.06693 0,16.60039c4.08531,0.03732 8.17761,-0.10148 12.25693,0.14128c3.21184,0.88405 1.92613,6.28901 -1.1953,5.71924c-9.68099,-0.03452 -19.36506,0.06286 -29.04388,-0.13468l0,0zm20.13012,-30.28433c3.12001,-1.21823 2.68139,-6.4896 -0.66547,-7.02707c-5.04868,-1.42498 -6.13888,7.54914 -0.83236,7.33854c0.51241,0.00345 1.03306,-0.0709 1.49783,-0.31146l0,0z" stroke-width="1.5" fill="#F85C50"/>
 </g>
</svg>
