<svg width="50" height="50" xmlns="http://www.w3.org/2000/svg">
 <!-- Created with Method Draw - http://github.com/duopixel/Method-Draw/ -->

 <g>
  <title>Layer 1</title>
  <path id="svg_9" d="m64.5,62.45313" opacity="0.5" fill-opacity="null" stroke-opacity="null" stroke-width="1.5" stroke="#000" fill="#fff"/>
  <path id="svg_10" d="m-424.5,101.45313l227.5,-80.45313l-62,114" opacity="0.5" fill-opacity="null" stroke-opacity="null" stroke-width="1.5" stroke="#000" fill="#fff"/>
  <path id="svg_28" d="m33.99776,17.56832c0,0 1.54358,-7.67376 0,-10.27321c-1.54539,-2.59946 -2.16173,-4.33097 -5.55978,-5.57058s-2.15992,-0.99256 -4.63073,-0.86576c-2.47081,0.12462 -4.53073,1.73151 -4.53073,2.59727c0,0 -1.54358,0.12462 -2.15992,0.86794c-0.61816,0.74333 -1.64721,4.20636 -1.64721,5.0743s0.51453,6.68557 1.02905,7.92299l-0.6127,0.24705c-0.51453,7.17748 2.0581,8.04542 2.0581,8.04542c0.92542,6.68557 1.85265,3.83906 1.85265,5.57058s-0.92724,1.11499 -0.92724,1.11499s-0.82179,2.72189 -2.87989,3.71226c-2.0581,0.98819 -13.48311,6.30953 -14.41216,7.42452c-0.92905,1.11718 -0.8236,6.31391 -0.8236,6.31391l48.99262,0c0,0 0.10727,-5.19673 -0.82179,-6.31391c-0.93087,-1.11718 -12.35588,-6.43634 -14.41398,-7.42452c-2.0581,-0.99037 -2.87989,-3.71226 -2.87989,-3.71226s-0.92724,0.61652 -0.92724,-1.11499s0.92724,1.11499 1.85447,-5.57058c0,0 2.57081,-0.86794 2.0581,-8.04542l-0.61816,0z" fill-opacity="null" stroke-opacity="null" stroke-width="1.5" stroke="#000" fill="#ffffff"/>
 </g>
</svg>